# xmcd
#
# Track frame offsets: 
#        150
#        18946
#        37124
#        58351
#        82201
#        103947
#        122860
#        138297
#        166987
#        188623
#        209742
#        229808
#        250260
#
# Disc length: 3635 seconds
#
# Revision: 0
# Processed by: cddbd v1.5.2PL0 Copyright (c) Steve Scherf et al.
# Submitted via: ExactAudioCopy v1.0b3
#
DISCID=c10e310d
DTITLE=周虹 - DTS ES 正品 情惹相思
DYEAR=2011
DGENRE=DTS ES
TTITLE0=爱情休止符
TTITLE1=擦肩而过
TTITLE2=川藏路
TTITLE3=放开手让她走
TTITLE4=粉红色的回忆
TTITLE5=红茶馆
TTITLE6=解回忆的毒
TTITLE7=林黛玉没有眼泪
TTITLE8=亲爱的你在哪里
TTITLE9=轻轻的告诉你
TTITLE10=天女散花
TTITLE11=往事只能回味
TTITLE12=最后一次
EXTD=
EXTT0=
EXTT1=
EXTT2=
EXTT3=
EXTT4=
EXTT5=
EXTT6=
EXTT7=
EXTT8=
EXTT9=
EXTT10=
EXTT11=
EXTT12=
PLAYORDER=
